<svg xmlns="http://www.w3.org/2000/svg" viewBox="0 0 807.4 558"><path d="M510.6,403.7H452.4Q397.4,553,342.2,702.4H233.3Q336.1,423.6,438.7,144.9H548.3l-70.2,191h57.4l70.2-191H715.3L551.1,590.8H441.5Q476.2,497.2,510.6,403.7Z" transform="translate(-233.3 -144.4)"/><path d="M778.6,144.4H999.3a37.8,37.8,0,0,1,14.4,2.9,54.3,54.3,0,0,1,12.7,7.2,63,63,0,0,1,9.5,8.7c2.5,2.9,4.2,5.3,4.9,7.2q-37.5,101.4-74.9,203a96.9,96.9,0,0,1-10.8,17.5,44.3,44.3,0,0,1-14.4,11.8,141.4,141.4,0,0,1-30.8,12.5,145.7,145.7,0,0,1-24.8,4.8q9,85.3,17.9,170.8H788.2q-6.6-63.3-13.3-126.5-43.8,119-87.5,238.1H572.6Q675.5,423.4,778.6,144.4ZM863.3,206q-27.4,74.5-55.1,149.1h34.3a110.8,110.8,0,0,0,14-1.2c5.9-.8,9.8-3.5,11.9-7.9l48-131.4-.8-.4.8.4c-.5,0-.7-.1-.8-.4s.1-2.1.5-2.4a8.7,8.7,0,0,0-6.1-4.9,68.2,68.2,0,0,0-13.1-.9Z" transform="translate(-233.3 -144.4)"/></svg>