<svg xmlns="http://www.w3.org/2000/svg" viewBox="0 0 1254.2 563"><path d="M1035,468.5q-20.6,61.2-40.9,122.4H943.2q28.9-86.5,57.8-173.2h47.9l-5.1,20c16.2-13.4,37.8-23.3,62.7-23.3,43.9,0,51.7,25.6,38.1,66.3l-36.7,110.2h-51.2q18.6-55.4,37.1-110.5c6.7-19.7.5-28.3-20.8-28.3C1057.2,452.1,1044.3,459.4,1035,468.5Z" transform="translate(-229.8 -141.9)" style="fill:#fff;stroke:#000;stroke-miterlimit:10;stroke-width:5px"/><path d="M1218.9,594.2c-45.6,0-67.8-21.3-70.6-51.5-1.1-10.2.3-21,4.1-32.5.8-2.1,1.5-4.2,2.3-6.2,13.7-41,43.5-70.2,79.6-83a120.8,120.8,0,0,1,39.5-6.6c42.6,0,61.4,20.4,61.6,50.2a110.7,110.7,0,0,1-6.2,35.1c-2.2,6.6-4.5,13.1-6.7,19.7H1201.1c-3.7,17.4,3.3,29.5,16.9,34.8,4.6,1.9,10.4,2.6,17.3,2.6a78.4,78.4,0,0,0,52.2-19.4c5.4,8.6,10.9,17.1,16.3,25.6C1282.9,581.4,1254.3,594.2,1218.9,594.2Zm41.8-142.4c-23.7,0-39.4,16.7-48.4,36.1h70.5l1.7-3.9C1291.2,464,1282.6,451.8,1260.7,451.8Z" transform="translate(-229.8 -141.9)" style="fill:#fff;stroke:#000;stroke-miterlimit:10;stroke-width:5px"/><path d="M1355.2,543l30.8-91.5h-27.9c3.8-11.3,7.5-22.5,11.2-33.8h27.9l14.3-42.6h50.8l-14.2,42.6h32.4c-3.7,11.3-7.4,22.5-11.2,33.8h-32.5c-9.6,28.9-19.3,57.7-29,86.6-4.3,12.8-.2,18,13.5,18a78,78,0,0,0,15.7-1.3c-4,11.7-7.9,23.4-11.8,35.1-10.2,2.3-20,4.3-32.5,4.3C1356,594.2,1344,576.8,1355.2,543Z" transform="translate(-229.8 -141.9)" style="fill:#fff;stroke:#000;stroke-miterlimit:10;stroke-width:5px"/><path d="M510.6,403.7H452.4Q397.4,553,342.2,702.4H233.3Q336.1,423.6,438.7,144.9H548.3l-70.2,191h57.4l70.2-191H715.3L551.1,590.8H441.5Q476.2,497.2,510.6,403.7Z" transform="translate(-229.8 -141.9)" style="fill:#fff;stroke:#000;stroke-miterlimit:10;stroke-width:5px"/><path d="M778.6,144.4H999.3a37.8,37.8,0,0,1,14.4,2.9,54.3,54.3,0,0,1,12.7,7.2,63,63,0,0,1,9.5,8.7c2.5,2.9,4.2,5.3,4.9,7.2q-37.5,101.4-74.9,203a96.9,96.9,0,0,1-10.8,17.5,44.3,44.3,0,0,1-14.4,11.8,141.4,141.4,0,0,1-30.8,12.5,145.7,145.7,0,0,1-24.8,4.8q9,85.3,17.9,170.8H788.2q-6.6-63.3-13.3-126.5-43.8,119-87.5,238.1H572.6Q675.5,423.4,778.6,144.4ZM863.3,206q-27.4,74.5-55.1,149.1h34.3a110.8,110.8,0,0,0,14-1.2c5.9-.8,9.8-3.5,11.9-7.9l48-131.4-.8-.4.8.4c-.5,0-.7-.1-.8-.4s.1-2.1.5-2.4a8.7,8.7,0,0,0-6.1-4.9,68.2,68.2,0,0,0-13.1-.9Z" transform="translate(-229.8 -141.9)" style="fill:#fff;stroke:#000;stroke-miterlimit:10;stroke-width:5px"/></svg>