<svg xmlns="http://www.w3.org/2000/svg" viewBox="0 0 1899 907.1"><path d="M367.2,1080v-27.9c7.3.2,14.6.2,20.6-2.8l2.5-9.2c5.3-1.2,9.2-2.6,13.2-3s9.3,0,14-.1c1.2-.1,2.4-1.2,3.7-1.3s5.7-.9,7.9.1a38.7,38.7,0,0,0,20.8,3.2c5.6-9,9.6-18.4,7.3-28.8,7.3-3,10.8-7.9,11.1-15.2.1-1.9,1.2-3.8,1.5-5.8,1-8.2,7.1-14.3,9.6-23.1l-15.9-24.5c-10.5-5.6-17.7-12.3-21.4-23.2-1.3-3.8-1.4-7.4-1.9-11.1s-1.8-7.9-2-12c-.3-7.5-.1-15,0-22.5a17.4,17.4,0,0,1,.6-5.1c3.1-10.2,6.8-20.1,15.9-26.8.5-.3.4-1.2.7-2.1-5.6-7-3.1-14.8-1.5-23.2l10.7-8.5h14.7l6.4,3.3c.8,4,1.7,8.3,2.8,14l8.8,6.4c3-4,7.4-1.2,10.1-2.2,12.8-8.1,28-6.8,39.8-13.6l3.4-7.3,12-3.4.6-7.3c1.5-1.3,2.2-2.7,3-2.7,7.8-.4,12.4-4.9,16.1-11.2,2.7-4.7,5.9-9,8.5-13.7,4.4-7.8,11.8-12.9,17.2-19.5-.2-6.8,2-12.5,7.1-18.2-3.6-1.1-6.8-1.1-8.5-2.7s-2.8-5.1-3.7-6.8l-7.9-3.4c.8-8.2-1.8-16.1,3-23.1,12.7-6.8,12.7-6.8,23.2-6.7,3.2,2,7.3,3.2,8,5.4,1.2,4,4.3,5.2,6,7.7,10.4-2.2,19.9-5.8,28.8-4.5l13.2,7.7c1.1.6,2.7.4,3.9.8,5.1,1.7,10.8,2.5,14.8,5.6s8.9,9.8,13.2,14.8c1.9,11.7,10.9,19.2,16.7,28.1v13.8H714.7l-5.7-5.7a27.9,27.9,0,0,0-5.2-21.9c-4.7-6-7.5-14-17.2-17.8l15.5,26.2c1.8,7.6-.6,13.1-2.2,18.7-2.8,9.8-6.6,19.4-5.8,29.8.6,7.2,1.4,14.5,2.1,21.7.2,2.3.2,4.7.4,8.2,17.2-7.5,34.2-5.3,51.6-5.2V831l12.2,1.9c2.3.4,4.7.7,7,1.3,7.2,1.9,13.9,4.8,19.3,10,12.5-9.1,25-16.8,38.2-22.1-2.9-8.5-5.4-16.4-8.3-24.1-1.9-5.1-3.8-10.1-4.2-15.5s.2-9.5-2.9-13.8-1.9-9-4.5-13.2c-5.9-9.4-13.5-17.3-20-26.1-3.1-4.1-8-7-9.1-12.3a112.8,112.8,0,0,1-2.2-15.3c-.3-4.9-.1-9.8-.1-15.1l-7.6,4h-9.2c-7-10.8-2.6-21.4-.4-32,3.1-15,13.1-24.3,25.1-31.8,9.5,2.2,19.2,3.4,27.5,8.8,2.1-6.3,7.3-9.1,10.7-13.3,6.8-.6,13.2.1,19.1,3.7,1.9,1.2,4,2.3,5.8,3.2v8.5l-4.1,2.4v13.6a22.5,22.5,0,0,0,14.2,5.1c6.9.2,13.8-.8,20.7,1.8,3.9,1.5,8.9.8,13.1-1.8,2.2-1.4,4.8-2.1,7.6-3.2,2.5-3.9,5.4-8.1,8.1-12.4a4.3,4.3,0,0,0,.6-2.9c-1.6-5.1,4.2-6.7,4.9-10.9s2.4-8.3,3.8-12.4c.1-.3.4-.5.6-.8,3-3.8,5.9-7.7,9.2-11.2s3-8.9,4.2-13.3c1.9-6.7,7.5-12.6,4.9-20.4-6-10.7-5.7-12.4,3.3-22.2,2-5.8,3.3-9.9,4.3-12.7,6.2-5.2,12.1-4.8,18.4-4.1,1,1.9,2.1,4,3.4,6s3.1,4.3,4.2,5.9c4.7-.5,9.1-.7,13.4-1.6s8.8,2.5,11.7,3.6a40,40,0,0,1,6.1-1.3c2.5-.2,6.2,1,7.3-.2,3.6-3.9,8.6-.1,11.9-2.9s8.5,0,12.8-3,8.3-.4,12.8-.4c1.2-2.1,2.5-4.2,3.6-6.2h9.1l3,6.8a24.3,24.3,0,0,0-2,2.5l2,3.3h-16.2c-2.4,2.4-4.5,4.4-6.5,6.5-8.9-.9-15.6,5.6-24,7.1s-17.5,2.3-26.2,4.2l-2.6,3a9,9,0,0,0,.5,2.2,7,7,0,0,0,1.4,1.8l-1.8,2.5c1.7,8.5,9.6,12.6,11.8,20.1,10.6-.6,20.5.2,27,10.2-1.4,15.8,3.5,31.4,2.1,47.3-.4,4.2-.1,8.5-.1,12.5,8.1,4.6,15.4,4,23-1.3,3.4-.3,7.4.1,11.4-1.9a68.3,68.3,0,0,1,19.9-6.5c7.3-1,15-.2,22.5-.2.7,0,1.4-.2.7-.1,4.2-2,8.1-2.6,10-4.9,5.8-6.8,13.8-10,20.9-13.8,2-4,3.9-7.6,5.6-11.2s4.4-9.5,4.6-15.4,2.8-12.8,4.4-19.3c4.7,2.2,4.7,2.2,10.4,1.4V565.5c-4.9-3.4-.8-9.1-3.9-13.6s-2.2-9.8-2.5-14.9c-.3-7.5-.2-15.1,0-22.6.1-3,1.1-5.9,1.8-9.6l-6.1-4V484.3c-3.2-6.4-12.4-6.3-13.5-14.5l-11.5-2.7c-11.8,15-21.9,30.3-34.9,42.8l-8.8,3.8c-3.6,5.6-6.5,10.1-9.1,13.9h-5.2l-2.7-5.2c2-4.7,4.9-8.7,10.1-10.7,2.2-.9,3.9-3.2,5.4-5.2,3.6-4.9,7.1-9.9,10.6-14.9,4.6-6.7,9.6-13.2,13.6-20.2,1.9-3.4,5.5-7.6.9-12-.4-.3.9-2.3,1.6-4-3.5-2.7-5.6-8.4-12.1-7.3-.2-2.1-.4-3.8-.6-4.9l-12.7-8.1v-6.2l13.3-13.3,13.9,1.7,8.7,10c3.5-2.2,6.3-3,8.1-6.5,2.8-5.7,9.2-8.1,14.7-10.6,2.1-.9,5.5-1.3,7.1-.2,5.6,4.1,12,6.1,18.5,7.3s10.1,6.5,16.1,7.9c3.2.7,6.1,2.6,9.9,4.3-1,5.3-1.8,10.2-2.8,15.6a55.8,55.8,0,0,1,16.3,22.9,163.5,163.5,0,0,0,9.3,19.9c1.5,2.8,2.1,6.2,2.9,8.7,2.9,2,5.2,4.3,8,5.3a31.6,31.6,0,0,1,15.8,13.1c3.2,5.1,7.5,7.2,12.1,9.3.2,4.4,4,5.6,5.8,8,11,.3,15.6-9.1,25.6-13.4l15.1,2.3c11.8-5.4,17.1-15.2,24.6-22.6,0-4.7,1.5-10.1-.3-13.9-2.9-6.3-1.7-12.5-1.6-18.6.1-4.5,2.4-8.9,3.8-13.8h12.9c1.2-6.9-1.7-13.4,2.2-18.9a47.6,47.6,0,0,1-1.9-6.9c-1.7-14.1,2.6-28,2.2-42.1a7.9,7.9,0,0,1,1-2.8c2.9-6-.9-12.9,2.7-18.8-3.5-6.4-.7-13.2-1.6-19.8-.2-1.7.1-3.6,0-5.3s-2.8-1.3-1.3-3.1l.9-1.1c-.8-4.8-1.6-9.1-2.4-13.2-3.7-7.5-8-14.7-10.9-22.5-2.1-5.6-2.5-11.9-3.5-17.9a4.9,4.9,0,0,1,.5-2.9c4.1-6.6,4.2-13.8,3.7-21.6,4.3-3.6,8.5-8.2,13.6-11.1s9.1-5.6,10-10.7c-4.1-9.1-1.6-16.5,2.4-23.1l13.1-3,12.6,7.7c0,3.1.6,6.4-.1,9.5s-2.9,8-4.4,11.8c4.1,3.7,6.6-1.4,9.9-1,7,1,11.9-2.7,16.3-7.8-1.4-4.9,1.8-6.7,5.3-7.7,1.9-4.6,3-9.3,5.4-13.2s3.2-6.6.6-10.4c-.9-1.3-.6-3.3-.9-4.9l5.7-2.9,7.3,4.5v4.8l-4.3,4.5c.6,5.5-1.4,11.3,2.7,16.5l-10.6,14.9c-1.6,2.3-2.7,5-4.7,6.7-4.7,3.8-10,6.9-14.7,10.8a16.1,16.1,0,0,0-5.2,7.5c-3.1,8.3-2.6,16.9-1.5,24.9,2,14.6,2.8,18.3-1.3,31.2-1.5,4.8-.8,9,.3,13.9,1.9,8.8,8.6,17.5,2.9,27.2-.5.8-.2,2.2,0,3.2,2.7,11,2.6,16,.4,25.3-.7,2.9-1.3,7,.1,9.1s1.4,6.1,1.5,9.1c.2,6.8-.1,13.6.1,20.4.2,3,1.2,5.9,1.7,8.2s-1.6,4.9-2.3,7.2l11.2,9.4c.1.9.4,2.9.6,4.4l22.9-2.7c3.1-3.3,6.6-7.4,12.2-7.7s13.4-.1,20.3-.1c3.8,9,6,18.3,14.5,23.6,5.2-1,9.2-3.9,9.2-7.2l-4.3-4.8c0-2.9,1-6.1-.2-7.8-2.4-3.2-1.6-6.6-2-10s-1.8-7.2-2-10.9c-.3-6.8.2-13.6-.2-20.4s.6-12.4-1.1-18.8-.6-13.4-1-20.1c-.2-3.7.5-7.3-1.8-11.1s-1.4-7.5.1-10.3c3.4-6.3,1-12.2,1.5-17.9l-4.1-.8c0-16.4-.1-32.4.1-48.5.1-4.4-1.4-7.9-3.5-11.5s-5.8-9.7-8.4-14.8-5.7-10.6-7.3-16.3-1.5-11.5-2.4-17.3a15.9,15.9,0,0,0-1.6-4.2c1.4-6.7,3.4-12.2,3.5-17.8.1-4.1-2.1-8.2-3.3-12.6,2.2-1.5,3.4-5.8,8.1-4.8l6.7,6.6-4.7,5.5c-.7,10.6,1.8,20.6,4.3,30.5,1.3,4.9,4.8,8.8,4.5,14.4-.1,2.2,2.7,4.6,4.4,6.7s4.6,5.3,6.6,7.5l8.7-.7-4.2-4.3c-.8-4.6-1.5-8.9-2.5-14.5l10.8-13h10.4l11.2,10.1c-.7,7.3-1.4,14.7-2.2,21.9l9.6-8.8c2.2-16,4-31,2.4-46.6l-7.6-9.9-2.7-8.9c5.7-2.9,9.9,2.3,15.2,1.5-.7,8.7.2,16.4,4.1,23.6,2.7,5.1,4.7,10.4,4.5,16.4-.1,1.9,1.3,3.7,2.1,5.5-.8,1.2-2.2,2.4-2.1,3.5.3,15.2-5.6,29.1-9.7,43.3-1.1,3.6-2.3,8.4-.8,11.2,2.4,4.5,1.3,8.8,1.7,13.2.3,2.5-.8,5.5.2,7.5,3.9,7.8,1,15.7,2.1,22.8-1.6,1.5-2.2,2.7-3.1,3a28.4,28.4,0,0,1-5.1.6c-1.9,9.8.8,18.3,6,27.2,0,2-1.2,5.8.2,7.5,2.6,3.4,1.4,6.7,1.9,10.1s1.7,7.2,2.1,10.9.8,4.8-1.4,7-1,3.4-.6,5c1.6,5.7,3.5,11.3,5.7,18.1,2,10.7,4.2,22.7,6.5,35.3-4,4-.5,8,2,12,.6,1,2,1.6,3.1,2.5l6.1-5.4,10.6,6.9h7.9l9.7-6.6h7.9c.3-.7.6-1,.6-1.2-.3-6.2.8-12.5-1.9-18.6-1.2-2.7-.5-6.4-.1-9.6s1.7-6.5,2-9.8c.9-10.1,1.5-20.2,2.2-30.3a4,4,0,0,1,0-1.1,83.9,83.9,0,0,1,3-8.4c1.5-2.8-1.6-4.5-1-7.2s.3-6.4.1-9.6c-.4-6.9,1.3-14-2-20.7a6.3,6.3,0,0,1,0-5.2c2.4-3.9,1.8-8,2.1-12.1.1-.8,1.3-1.6,2.2-2.6-3.5-1.6-3.1-5.6-2-7.3,2.3-3.4.9-7.4,2.9-10.7s.7-9.2-.7-12.7c.7-2.7,1.7-4.6,1.8-6.5.1-7.9.7-15.8-.1-23.6s2-14.3,6.7-19.8c2.9-3.3,7.2-5.3,11.4-8.4-7.2-4.9-.6-10.1-.4-15.2s6.6-8,11.4-11.2,10.5,2.4,16,.2c1.1-4.1,2.3-8.3,3.5-12.7s6-2,10-1.3L1638,208.4l8.3,8.4c-4.7,4.3-7.4,9.7-7.7,15.1s-7.3,9.9-7,15.7l-8.4-1.1,8.3,9.4c.3,3.2.2,6.4,1.2,9.3s-1.4,6-1.1,9.4-1.5,7.2-1.9,10.9c-1.7,13.4,2.8,26.5,2.2,39.9-.1.9.8,1.8,1.1,2.7,3,9.5,5.9,18.8,5.4,29a57.5,57.5,0,0,0,1.6,16.4c2.1,9.4,2,19.4,2.5,29.1.3,7.2,0,14.3.1,21.5,0,2.1-.2,4.3.4,6.3,2.4,7.5,4.2,15.1,4,20.3l5.4,9.1c10.4-7,19.6-13.9,26.7-23.6V420.8l19.2-16,17,2c.7-3.8,1.8-8.3,2.5-12.9s-1.5-11.3,2.1-16.4a3.4,3.4,0,0,0,0-3.1c-3.8-3.5-1.3-8.1-2.1-12.1-1.5-7.8,2.9-15,2.2-23.2,6.2-4.5,13.1-8.6,18.7-14.1s15.1-6.5,20-13.4c-1.2-14.9,2.5-29.9-2.1-44.4a5.7,5.7,0,0,1,.4-3.1c2.4-8.7,2.4-10.4-.5-16.6l-6-13.4,1.8-2.2c-2.1-4.5-2.9-4.5-5.6-7.5-5-5.3-10.8-9.7-14.8-16.3s-10.1-14.8-18.5-19.1c-2-1-3.2-3.5-4.5-5.1,3-5.3,7-4.6,11.5-3.6-2.6,6.8,5.3,7.8,6.2,12.8.3,1.4,2.8,2.6,4.4,3.7,5.3,3.7,10.7,7.2,15.9,11,1.1.8,1.5,2.8,2.1,4h7.8l3.1-5,17.1,3c5.3,8.8,10.9,16.8,4.9,27.1l9.7,6.9c1.6-.7,2.9-1.9,4-1.7,9.1.9,16,6.5,22.7,11.7a25.4,25.4,0,0,1,2.7,4.3c2.4,5.9,5.9,11.7,4.4,18.6-.7,2.9-1.4,5.8-2.2,8.8-2,7.7-5.7,14.8-8.4,22.3-1.6,4.4-5.6,6.1-7.1,8.7l-8.1,2.3-6-5.5c-.7,11.2-2.1,16.2-6.9,24.2-.2,26.8-.2,26.8,4.1,34.6l-1.4,1.6c.8,5.8,1.4,10.8,1.9,14.1,6.2,9.9,11.5,18.5,16.8,27.1-1.1,6.8,3.8,12.2,4.5,18.6.2,1.5,1.9,2.8,2.9,4h8.8c12.2-11.1,24.8-17.9,40.7-21.5a14.7,14.7,0,0,1,2.2,2.1,45.4,45.4,0,0,0,17.3,15.1c8.5,4.3,8.6,4.4,14,12.1.7.9,1.1,2.2,2,2.9,6.8,5.5,7.5,7.8,4.6,15.5,3,8,7,15.2,6.3,23.7s3,17.3,5.9,25.5a39.9,39.9,0,0,1,2.7,13.9V1080H392.3a32.3,32.3,0,0,1-5.4-.1c-2.6-.4-5.2-1.3-7.8-1.9C375.8,1081.9,371.1,1079.2,367.2,1080ZM937.3,734.9c1.4-1.4,3.4-2.4,3.8-3.9a98.8,98.8,0,0,0,2.4-15.1c.3-6.8-.2-13.7.1-20.5s.2-11.5,1.6-17.4,3.6-14.1,2.8-21.6c-.6-5.8-.5-11.6,1.7-17.5s2.3-11.5,2.3-17.2c0-3.9-1.8-7.9-2.9-12.6l-5.5-2.2-7.5,5.5c-5.4,7.6-8.8,16.1-15.1,23-3.8,4.2-6.7,9.2-9.6,14.2s-4.4,8.9-6.1,12.5c-11.6,1.9-22.2,2.9-32.4,5.6a46.8,46.8,0,0,1-14.3,1.8c-3.6-.1-7.5,1.4-11.1-1.9-1.1-1-4.6.3-7,.7s-4.6.9-7,1.2c-.5.1-1.1-.6-1.3-.7s-1-2.6-1.9-4.6l-5.1,4.3v10.9c-4.8,4.1-6.6,9.7-9.4,17.1,8.2-3.1,13.9.2,18.8,3.4s11.6,6.8,17.2,10.6a23.3,23.3,0,0,1,5.4,5c3,4.1,7,8.1,8,12.7s4.7,8.1,6.7,12.1c5.3,10.1,12.4,19.2,18.6,28.5,8.8-1.4,14.2-6.9,21-11.6l23.2,3.1,3.8,6.6,9.3-2.6V749.7l-10.5-7.9ZM610.1,775.2c-3.3,4.2-5.7,7.6-8.6,10.6s-6.2,5.2-9.1,7.9-8.1,8.1-10.5,13.9a16.9,16.9,0,0,1-8.3,9.3c-6.6,3.1-11.4,9.7-19.7,9.7-1.1-.1-2,1.8-3.3,2.3-9.5,4.5-17.9,11.7-29.1,12.7a28.3,28.3,0,0,0-10.4,3.4c-6.7,3.3-14,4.2-19.7,5.4-4.9,10-3.8,19.7-3.7,29l3.2-3.3H511v9.1l-4.4,5-17.8,3.9c6.2,1.2,11.6,1.8,16.7,3.5,2.2.7,4.1,2.2,6.7,1.9s6.6,1.1,9.9,1.8,7.5,1.3,10.4,3.5,4.1,5.4,6.1,8.1,6.8,7.9,9.1,12.4c5.2,10.3,14.2,17.2,20.8,26.3l11.2-3.4,4.1-4.1c-1.3-4-3.4-7.7-3.6-11.6-.5-10.8,0-21.5-2-32.4-1.4-7.5-.3-15.6-.3-21.7,1.3-3.1,1.5-5.1,2.6-6.1,5.5-4.4,6.7-10.6,8.6-16.9s4.3-12.9,10.3-17.2c2-1.4,3.6-3.5,5.3-5.2a20.7,20.7,0,0,0,6.6-2.3l7.7-3.4c-1.3-9,.6-18.2-2-27.8s-.2-17.8,3-27.6l20.1-16-11.4-8.3c-3.4,4.6-8.1,8.5-9.5,13.4S608.9,768.2,610.1,775.2Zm345.1-43.6c4-.9,6.2-1.8,8.3-1.8,6.6,0,11.6-3.5,16.3-7.4,2.5-2.1,3.8-5.5,6.4-7.6s6-2.7,8.7-4.5,6.2-3.9,6.4-6.1c.5-6.1,5.2-7.5,7.7-9.3,2.2-5.1,3.9-9,5.5-12.9l-4.3-7.7c0-9.2-.2-19.2.1-29.2s-5.6-19.1-.2-29.4l-26.7,2.9-7.4,5a7.5,7.5,0,0,1-.7,2.4,118.3,118.3,0,0,0-14.5,56.1c-.1,8.6-.2,17.1,0,25.7S960.4,723.5,955.2,731.6Zm844.4-288.3c0-2.1.3-3.7-.1-5-3.2-9.9-6.5-19.8-14.5-27.2-6.2-5.7-9.7-12.5-11.8-21-1.5-6.3-.6-12.4-2.7-18.1L1760,342.5c-8.6,3-17.8,3.8-25,9.8,0,8.9.6,17.5-.1,26s-3.7,16-3.9,24-2.6,15.9-4.4,23.6l20.7,16h39.4c.8,1.2,2.1,2.9,3.4,4.9ZM561.8,978.6l-9.9-6c-3.4-4.7-5.7-8.4-8.4-11.8-7.1-8.9-14.3-17.7-21.5-26.5a14.4,14.4,0,0,1-.9-2.4c-9.1-4-18.1-1.9-28.2-2.2l11.2,29.1c2.3,9.9-.7,17.9-5.6,25.8s-6,15.5-6.9,23.1l-4.3,6c2.3,3.5,4.8,5.1,8.3,3.5s5.2-3.7,5.9-6.1c2.1-7.3,9.2-7.2,13.9-10.5,2.1-1.4,5.2-1.3,7.6-2.3,8.1-3.2,16.7-5.4,22.9-12.1C550,981.8,554.7,978.7,561.8,978.6Zm672.1-450.4c-10.9-6.1-18.3-16.3-29.8-20.5-1-3.2-2.1-6.3-3.2-9.8-4.6-4-8.3-9.9-16.3-11.2-5.5,12-11.1,24-16.8,36.2.2.2,1.3.9,1.5,1.8.9,3.3-1.3,6.9,1.6,10.1s-2,6.2-1.6,9.6c.3,1.7-.7,4.2.2,5.2,3.1,3.8,1.5,8.1,2.1,12.1.8,5.9,1.9,11.9,3,18.7,3.6-2.3,6.5-4,9.2-5.9a37.8,37.8,0,0,0,7-5.5c2.4-2.5,4.1-5.5,5.9-7.9,1.9-6.3,3.7-12.3,5.2-17.6,4.9-2.7,8.8-5.9,13.1-6.9s10.7-.2,16.1-.2c.3,0,.8.1,1-.1a6.4,6.4,0,0,0,1.8-1Zm257.4-58.7,9.5,3.5c1.6,2.6,3.3,5.1,4.5,7.1l17.4,3c1.6-1.6,2.7-2.6,3.9-3.9l-7-4.6c.9-3.1,1.9-6.3,2.8-9.6l-4.9-5.5,2.7-4.8c-4.6-7.7-7.5-15.9-6.7-25.1.1-2.1.7-5.1-.4-6.1-3.9-3.5-.5-8.1-2.6-11.9s-4-7.9-3.4-12.5c-4.4-3.7-1.5-9.1-3.4-13.7-3.1-7.6-6.2-15.3-10.2-22.5-.2-.4-1.2-.4-2.4-.8l-3.4,5.2v25.1c-.1,2,0,4.3-.8,6.1-3,6.8-.6,13.9-1.3,20.8,4.3,3.7,0,9.5,2.5,12.9s.4,8.9,2.3,13l3.4,6.5C1492.9,458.3,1492.1,463.3,1491.3,469.5Zm-621,306.3c-2.6-2.5-5.4-4.8-7.5-7.7s-2.9-5.9-4.7-8.7c-3.3-5.3-5.2-11.5-9.2-16.5-2.6-3.5-5.1-7.1-7.9-11.1-6.1-2.3-22.9-5.8-27-5.3l1.9,3.6c3.6,7.1,8.5,13.3,11.7,20.8a74.6,74.6,0,0,1,5.9,24.2c.6,9.9,4.1,18.2,9.2,27.8v8.5l11,7.1c5.9-11.4,8.5-14.3,18.8-19.9,3.1-1.8,5.7-3.7,6.8-7.2C871.3,786.8,870.9,786,870.3,775.8Zm758.8-307.5c.9-4,3.6-8.6,2.3-10.9-3.5-6.4.7-14-3.9-19.9,1.6-8.8-2.8-17.2-2.2-25.9.3-5.4,0-10.8,0-15.4-5.3-8.9-8.2-18.6-15.5-26.1l-5.1,12.2c-1.5,7.2-2.2,14.5-4.7,21.1-1.6,4.3-2.8,8.3-2.7,12.8.2,6.1.3,12.2,0,18.3-.1,2.6-1.2,5.1-2,8.3l4.3,4.6c-1.3,7-2.4,13.4-3.7,20.7C1606.8,465.6,1617.7,463.3,1629.1,468.3ZM1359.6,347.5c-1.2,6.5-.9,12.6-2.9,18.7s-.7,12.5-2.7,18.2c-1.2,3.4-1.4,6.6-1.9,10s-1.5,7.2-2,10.9c-.7,5.8,1,11.7-2,17.5-1.3,2.5-1.4,7.2.2,9.2,2.8,3.8.8,7.6,1.8,10.5l4.7,5.9-2.4,3.4,23.5,3c0-2.2.5-4.2-.1-5.6-3.2-6.6-1.7-13.7-2.1-20.6s1.6-14.7-2.1-21.6c1.5-11.3-2-22.3-2.3-33.5C1369,364,1365.2,355.3,1359.6,347.5ZM642.3,826.1h34.8c-.9-4.3-2.1-8.2-2.3-12.1s-.7-8.9-4.4-12.2c0-4.3.1-8.5,0-12.8s.8-8.2-.9-12.2c-9.2,2.8-15.9,10.6-25.8,8.7l-4.6,4.6c-4.1,9.5,4.5,18.1-.4,26.9Z" transform="translate(-21 -173.1)"/><polygon points="391 906.9 0 906.9 50 895.9 122 895.9 163 887.9 224 887.9 299 877.9 362 884.9 391 906.9"/></svg>