<svg xmlns="http://www.w3.org/2000/svg" viewBox="0 0 1920.3 860.7"><path d="M1610.1,941.5a90.9,90.9,0,0,0-19.5-9.1c-5.3-1.8-10.5-3.8-14.6-7.9a15.1,15.1,0,0,0-4.2-2.7c-6.5-3.4-13.1-6.8-16.8-12l-21.3-6.4c-2.6.8-5.4,1.1-7.4,2.5-4.5,3.1-8.5,6.9-12.7,10.3s-7.4,7.3-11.8,9.5-11.6,6.3-18.4,6.6c-4.5.2-9.1-.2-13.6.1s-8.6,1.7-12.9,2a16.5,16.5,0,0,0-9.9,4.1c-8.5,6.9-17.5,12.8-28.5,15-2.8.6-5.1,3.7-7.9,1.4-1.5-9.2-4.6-17.7-5.9-26.6-.5-3.7-1-6.8.8-10.1-3.8-6.5-1.5-13.6-1.5-20.4s-2.1-15.8-4.5-23.5l9.4-4.7c-1.7-6.1-3.9-12.1-4.9-18.2s1-13.4-1.6-20a7.1,7.1,0,0,0,1.2-1.3l-1.6-2.3c1.6-7.1,3-13.2,4-18,5.6-6.7,11-12.2,15.1-18.5,2.3-3.7,3.6-8.6,6.3-12,4.7-5.6,6.1-11.8,5.9-18.7a58.9,58.9,0,0,0-.1-8.4c-.3-2.6-1.6-5-1.9-7.6s1-7.6-.4-10.4,1.4-6.7.4-10a8.9,8.9,0,0,1-.1-3.2l-4.7-5.5H1418l-4.4,11.2,7.6,4.7c.4,3,1.6,6.9,1.5,10.8-.3,6.7-1.4,13.5-2,20.2-.2,3.1,0,6.2,0,8.3-4.7,4-9.2,6.9-12.3,10.7-5.6,6.8-14.2,8.8-20.8,13.8-.7.5-2,0-3.7,0l-3.9-2.8c2.1-6.2,2.6-11.6,5.4-15.2,4.5-5.6-1.5-9.7-.5-14.7l-7.9-7.3h-10.6l-6.8,9.4v15.5l3.5,2.7c1.2,5.4,2.1,9.6,3,13.8-2.9,1.9-5.4,4.6-8,4.7-10.2.5-16.7,6.6-23.1,13.3-3.1,3.2-6.6,5.6-11.2,6.1-9.2-5.2-13.8-14.1-18.7-22.5,4.3-4.5-.2-7.6-1-11.2h-4.9l-6.2,5,1.8,6.9a40.4,40.4,0,0,1,8.5,12.4c3.7,8.7,6.9,18.2,15.1,23.6l13.8,1.5,11.4-5.8c1.3,1.7,3,2.9,3.2,4.4.9,6.7,2.5,13.2,2.4,20.2-.4,22.1-.2,44.3-.2,66.4a45.6,45.6,0,0,0,.1,7.4c2.1,10.7,2.2,10.7,0,21.5-.3,1.3-.5,3.2.2,4,3.9,4.4,1,9.1,1.6,13.4-11.4,1.5-21.4-1.2-31.2-5a12.7,12.7,0,0,0-8.6-.1,104,104,0,0,1-15.5,3.2c-7.4,1-15.2.5-22.3,2.5s-14,.2-20.5-1.1c-9.8-2-19.1-6.2-28.7-9.3-1.9-.6-4.8-1.2-6.1-.3-4.4,3.4-9.1,1.3-14.3,2.2,2.4-4,2.9-7.2,1.1-10.8a16.7,16.7,0,0,1-1.1-5.9c-.2-6.4-.3-12.7-1.9-19.2-2.5-10.2-7.5-20-6.8-31,0-.4-1.2-.9-1.4-1.5-2.3-7.8-5.5-15.6-6.5-23.6-1.4-10.9-7-20.5-8.1-30.2,1.6-6.9,3-13,4.3-18.9l21-9.6c-.9-7.4-2.5-14.4-2.5-21.4s-4.5-13.2-4.9-19.3c-8.6-3.4-7.3-13.1-13.1-17.5l-2.9,2.1-14.6-7.8,5.6-13.4v-9.6c-4-4.7-6.5-10.9-13.2-9.5-1.6-2.3-2.4-4.9-3.8-5.3-4.1-1.2-8.1-4.4-12.4-2.9s-8.5,3.6-10.5,8.5c-1.4,3.3-3.8,6.3-6,9.9v10.4l3.9,1.3c-8.1,8-16.6-.5-25,1.6-6.3-6-13.4-10.9-18-17.5s-10-8.3-15.1-11.9l-2.1,1.5c-5.3-3.2-11.2-5.8-15.9-9.8-8.3-7.2-15.5-15.7-24.5-22.3-6.3-4.7-10.1-11.4-13.3-18.7-1.5-3.7-2.6-8.7-7.6-8.7l-2.7-8.8,10.6-8.3-1.4-1.5,8-17.6c-4.6-9.1-4.6-9.1-17.4-15.8-5.1,2.7-12.2,2.6-15.4,8.3s-4.6,11.3-7.2,17.7c-3-1.4-6.2-2.2-8.8-4.1s-6.2,1.2-9.1,1.4c-8-4-16.5-2.8-28.3,4-17.4.9-34.5-3.5-51.8-2.1-5.9.5-11-2.3-15.8-5.1A83.6,83.6,0,0,1,853.7,606c-12.8-11.6-25.3-23.7-37.5-35.2-1.1-5.1-1.1-5.1-6.3-10.7-1.1-1.3-1.6-3.1-3.4-6.7l10.9,5.2,11.4-8.8v-4.9l5.3-11,3.5-1c-.6-2.8-1-5.4-1.8-7.9-1.9-6.1-7.8-7.4-12.3-10.5s-6.5-2-10.2-.4c-9.3,4.2-13,11.9-14.7,22-7.1-.8-14.2-1.1-21-2.7-3.3-.7-5.8-4.4-9.1-5.9s-6.8-3.5-10.5-2c-8.1,3.3-16.2,6.7-24.4,9.9s-16.1,10.2-23.2,16.5c3.7,7.5,6.5,14.7,13.7,19.6-2.1,5.5-4.3,10.9-6.3,16.2a29.6,29.6,0,0,1,1.3,4.5c.2,2,.1,4.1.1,6.1,2.7,6.3,6.4,11.5,12.8,15-12.6-.9-23.5,1.2-29.7,13.5,4.1,7.3,4.1,7.3,2.9,12.3-11.4-5.1-11.5-5-16.6-12.7s-9.1-16.3-19.8-17.8c-1.1-.2-1.9-2.7-2.3-3.2h-10c-10.8.1-21.1-2.1-30.5-7.8-2.2-1.3-4.9-1.8-7.2-2.8a12.7,12.7,0,0,1-4.2-2.5c-7.6-7-15-14.2-22.1-20.9-10.9.9-20.6.5-29.2-5.2,0-11.2,2.2-140.3,1.7-142.2,2.7-1.7,2.7-1.5,4.3-2.5V407.7l-3.6-1.3V302.1c6.8-1.6,13.6-2.3,19.5-4.9,8.5-3.7,17.3-2.4,25.5-1.5,13.4,1.7,15,2.3,26.3-1.3,9-2.9,16.8-10,27.4-7.4,0-3.7-.3-6.5.1-9.3v-1.1a40.4,40.4,0,0,1-28-15.8,41.9,41.9,0,0,1-11.1,1.6,40.7,40.7,0,0,1-6.1-.5,40.3,40.3,0,0,1-5.9.5,40.9,40.9,0,0,1-18.6-4.5c-14.9-4.6-25.6-17.6-28.5-33.2a25.2,25.2,0,0,1-1.4-3.3c-2,.1-4.1.2-6.2.1-.5,0-1.1.6-2,1.2v186c-7,2.8-9.7,2.4-17.6,2.8s-17.3-3.4-25.3-2.4c-12-15.1-23.7-29-36.8-42.2l.8-2.1c.9.8,1.6,1.5,2.4,2.1,2.3-2.3,4.6-4.4,6.7-6.8a74.9,74.9,0,0,0,4.5-6.5c-3-2.7.7-5,.5-7.7s1.3-5.7,2.2-8.9l-6.8-9.5c-4.5-1.1-7.9-3.1-10.8-2.4-6.9,1.6-12.3,5.2-14.6,13.1-1.7,6-1.6,11.9-1.9,17.9-5.9.3-10.8,5.2-15.7,1.2l-15.8,6.3c0,.9.3,1.9-.1,2.2-8.5,7.5-13.2,17.8-19.9,26.6-4.2,5.5-8.5,11.3-11,17.6-3.6,8.8-7,17.6-12.8,25.3-2,2.8-2.2,6.8-3.2,10,3.4,3.3,5.2,7.7,10.3,5.8,1.7-3.4,3.3-6.6,5.2-10.6v-9.3l5.5-7.6c3.4-4.8,7.2-9.6,10.3-14.7s3.8-6.5,12.1-12.1c-5.1,11.8-8.8,23.2-10.4,35.6,1.7,2.4,3.7,5.5,5.5,8.3.7,5.5-6.7,9.1-3.5,14.7l3.5.8v4.3c.2,8.9-3.4,17.5-2.2,26.6a49.2,49.2,0,0,1,0,11.5,78.8,78.8,0,0,1-2.1,11.8c-.2,1.2-1.5,2.2-2,3.4-1.2,3.4-2.8,6.8-2.2,10.7.3,2,.8,5-.3,6.1-2.7,2.8-1.1,5.9-1.7,8.8s-2,5.8-2,8.7a37.8,37.8,0,0,1-6.1,20.8c-6.7,10.4-6,11.1-17.5,11.2a51.8,51.8,0,0,0-15,1.8c-9.7,3-13.5,3.1-21.2-.1-3.2-1.4-6.6-.7-9.1-2l-4.7-4.7c-1.3-12.5.9-24.9-2.1-37.3-2.1-8.9-1.6-18.3-2.4-27.5a27.4,27.4,0,0,0-.9-3.9c-1.2-6.1-2.5-12.2-3.7-18.2l8.8-8.2c.1-2,.2-3.7.2-4.9,8.7-1.9,17.3,1.9,25-2.8.4-5.5.4-10.4,1.9-15.4s-.5-10.7.6-15.7-6-9.4-.3-14.1c-4.9-5.6-6-8.3-9.1-22.1-6.9.9-10.8-4.2-15.1-8.4h-4.3a29.6,29.6,0,0,1-7.2-15c-1.4-7.8-3.1-15-8-22.1s-11-12.4-18.6-11.6c-9.9,3.2-12,9.4-11.5,17.2.2,2.5-.6,5-1.1,8.1,1.2,3.1,2.7,7,4.1,10.8,3.9-.4,6.7.4,7.9,5-3.1,2.1-4.1,5.9-5.7,9.6s-4.7,6.3-6.9,9.2v11.8l3.3-1.7c1.7,7.3,5.5,14.2.4,21.1,4.3,5.2,1.8,11,2.2,16.4s.1,11.1.1,15.3c-12.4,7.6-24.1,14.2-35.3,21.6-4.1,2.7-6.3,8.2-4.4,12.6,3.3,7.7,4.4,16.5,9.4,22.5,1.8,9.5,3.4,18.2,5.2,27.4h-5c-9.4.8-18.3,2.3-25.4,9.9-5.2,5.6-12.3,8.8-19.3,11.5l-6.2-2.7-27.8,12.6c-3.6-3.4-.9-8-2.4-11.7,2.7-1.7,1.4-4.4,1.7-6.7.7-7.8,1.3-15.6,2.1-23.4.1-.9,1.1-1.7,1.4-2.6,2.5-6.7,4.4-13.7,7.7-20,2.1-4.1-.5-9.2,1.7-11.8s.7-7.2,3-10.6.9-6.6.9-10,.2-7.4,2-10.8c.5-.9-.4-2.6-.8-3.8a22.4,22.4,0,0,1-.1-14.9c.4-1.2,1.3-2.8.9-3.7-4.1-9.4-1.6-19.2-1.7-28.7,0-5.3-1.9-10-2.7-14.9-.4-1.9-.8-5-2.1-6.4s-1.1-5.3-1.9-7.7c-1.6-4.6-3.7-9-5.7-13.8.2-.3,1.4-1,1.5-1.8.8-8.1,1.4-16.2,2.2-24.4.6-5.3,1-10.8,2.5-15.8,2.3-7.5,3.9-14.9,3.8-22.7-.1-13.7,1-27.5-2.9-41.2h-3.4l-9.3,8.1c2.3,4,4.7,7.9,6.4,10.8-1.8,10.7-4.7,20.4-7.4,30.2s-3.5,20.3-5,29.8l-7.4-7.2c-1-8.4-1.9-16.7-2.9-24.9l4.4-3.6V311l-6.6-3.2-8,7.5c3,6.1,3.1,8.5,1.6,24.1l-6.3.3-14.1,9.7a4.9,4.9,0,0,1-.2,2.3c-2.2,3.7-2.2,6.8-.3,11.1s2.4,7.5,5.4,10.4,4.5,4.4,6.7,6.7c.3.3.3,1,.5,1.8h-7.7c-2.3,12.1-10.8,19.5-18.8,25.8-3.2,22.5,5.3,40.8,15.2,58.8,6.1-.6,12.2,1,17.8-1.5.9,8-.3,15.8,1.9,23.7,1.8,6.2.3,13.3.4,20a28.2,28.2,0,0,1-5.5,16.6c-5.5,8-10.1,15.9-12.7,25.4-2.1,7.8-2.4,16.6-9.2,22.5,1,6.1-3.2,10.4-5.1,15.1l-11.7-6c-1.9.2-5.3-.4-7.9.8-6.8,3.3-14.1,6.3-19.5,11.3-8.9,8.3-20.4,10.3-30.7,15.2-2.4,1.1-6.1.2-9-.6-6.8-1.9-13.4-4.4-20.4-2.6S10.1,614.8.8,613.8v468.3H1618.7V945C1615.4,943.7,1612.5,943,1610.1,941.5ZM160.8,588H148.9a5,5,0,0,1-2.7-6.1c4-11.6,7.1-23.5,12.7-34.5.6-1.2,1.9-2,2.9-3C159.5,558.9,161.3,573.3,160.8,588Zm154.1-22.5c-3.4-.9-6.1-1.9-8.9-2.2a62.8,62.8,0,0,0-8.6-.1L285.9,557c-3.8-17-5.2-33.9-12-49.6l25.6-8.3c.5,8.8,6.2,15,7,23.1s6.4,13.4,8.3,20.8l-2.2,2.3,2.4,2.5c-.5,1.1-1,2.3-1.7,3.6C315.8,555.4,314.3,560.1,314.9,565.5ZM462,569.3c.9,1.4.2,3.9.2,7.3-11-4.4-20.7-8.5-30.7-.9-3.2,1.1-7.5-1.7-11.1,3.2-.2-4.6-.3-8.3-.5-12.6,6-3,5.1-9.7,6-14.8,1.4-7.1,1-14.5,4.4-21.4,1.6-3.3,1.2-7.8,2-11.7,2.1-9.7,6-18.7,8.9-28,2-6.1,5-11.9,7.8-18.5.9.9,2.2,1.4,2.6,2.4,2.4,5.8,5.2,11.6,4.2,18.2-.6,3.9,1.1,7.2,2.1,10.7A78.8,78.8,0,0,1,460,515c.3,3.8.1,7.7.1,11.5s-.2,9.2,0,13.7-1,8.1,1.9,11.9c1.1,1.6,1.1,5.3,0,7.1C459.8,562.9,459.6,565.7,462,569.3Zm94.7-2.7a73.5,73.5,0,0,1-8.4,2c-3,.6-6.2,1.2-9.1.8-6.3-.9-10.6-.2-15.2,2.4a182.5,182.5,0,0,1-16.6,8.2c-1.2.5-3.5.6-4.1-.1-3.1-3.6-7.3-1-10.6-2.1-4.9-4.1-9.8-8.1-13.7-14,1.1-4.2-2.2-9.6,2-14.2-4.2-5.2-1.4-11.3-1.9-17s.3-11.2-.2-16.8c-.4-3.6-3.1-6.9-2-10.7,4.5-15.4,1.2-31.1,2-46.6.2-4.2-1.4-8.5-2-12.8s.5-8.5-1.8-13,.6-8.5-1.9-12.6l5.4-.6v-9.2l3.3-5.4c7.2,1.1,9.9,6.3,13.1,11.2l4.3-2.3c6,5.6,14.3,7.6,22.4,9.5,4.7,1.1,10.3,2.1,14.4.3,6.2-2.6,12.1-.9,17.6-1.8l3,3Zm608.1,195.2a53.3,53.3,0,0,1,2.3,6.3c.5,2.3.5,4.7.8,7.1s-.1,3.8,1.2,5.9.6,5,.9,8.7l-3.6-3.4c-1-8.3-2-16.3-3-24.3Zm-390-104.9c-2.7,6.7-2.5,14.8-6,22.7l-11.6-12.7V654.1c-1.2-1-3.4-2.3-4.9-4.1-4.1-4.6-9.4-5.9-15.1-6.7-3.6-.4-7.1-1.1-10.5-1.7-1.1-2.1-1.9-3.8-3.1-6l5.1-4.1,10.9,2.8c3.2-3.4,8.8-2.5,12-1s6.6,1.1,9.8,1.6,4.4-.1,6.8,1.4c4.3,2.5,9,.1,14.9-2.1C780,643,777.6,650,774.8,656.9ZM923.7,661a6.5,6.5,0,0,0-.2,1.1c-.1,8.1.5,16-3.9,23.7-3.5,6.1-2.1,11.7,1.6,19.5,1.9,4.1,4.1,8.1,6.1,12l-9.2,16.6c.5,3.5.8,5.9,1.3,9.1-8.6-7.6-16.1-14.6-24-21.1s-13.2-9.7-22.7-9.2-18.5-4.1-26.1-10.3c-1.6-1.3-2.8-3.5-4.6-4.1-10.3-3.5-19-10.1-28.6-14.9-2.4-1.2-4.6-2.6-7.4-4.2-5.7,1.2-11-2.1-17-3.5.8-2.6,1.8-4.3,1.7-6-.1-5.5,2.4-10.2,4.2-15.2,4-11.3,9.6-22,13.4-33.5,1.4-4.2.5-8.1,1.7-12.1-7.6-8.4-18-12.2-27.6-17.1v-4.6l3.5-1.2,3.6-8h4.7l25,25.2c3.1,3.2,6.3,5.6,11,6.6s9.4,4.2,14.5,6.6c2.2,4.2,4.5,8.8,6.8,13.3l8.1,2.6c4.7-5.2,7.7,1.1,11.5,3.3l8.6-4.1c5.3,1.2,10.9,1.3,15.2,3.7s10.1,1.4,15.1,1.7,11.2.1,16.6.1l8.5,5.8,6.5-2.5C935,648.7,927.5,653.4,923.7,661Zm50.2,114.4c-.5,2-2.1,3.7-3.8,6.4-4.9-5.1-8.7-9.1-11.3-15s-4.1-14.2-13.5-14.1l-8.9-8.9v-6.6l13.1-5.1h14.7l9.5-6.5c6.6.7,14.4-1.9,21.8,3.3-.8,1.3-1.6,2.6-2.3,4-6.4,11.7-11.3,24.1-17.3,35.9C974.7,771.1,974.5,773.2,973.9,775.4Zm137.2,104.5-11.6-11.6c-.6.7-1.1,1.4-1.7,2-6.2-2.9-12.4-5.5-18.4-8.8-2.1-1.2-3.5-3.8-6.2-7a29.9,29.9,0,0,1-4-1c-4.4-1.4-8.4-3.5-13.3-3.5-8.5-.1-15.5-3.2-18.6-12.1-.5-1.2-1.1-2.4-2-4.7v-7.3a43.3,43.3,0,0,1-12.5-18.9c-.6-1.8-.3-4.1-.4-6.3-2.8-4-7.8-6.5-9.3-11.8l-2.4,2.2c-6.7-2.9-15.4-2-19.6-9.9,2.6-11.4,8.6-21.1,15.6-30.4,4.5-6,5.6-14,11.1-19.6.9-1,.2-3.4.6-5a29.5,29.5,0,0,1,2-4.5c-2.4-8.9-9.9-13-17.1-17.1-5.6-3.2-11.5-7.2-17.6-7.9s-7.6-7.6-14.9-4l4-9,3.1,1.8c.7-.1,1.5-.1,1.9-.5,2.3-2.2,4.3-4.6,6.8-6.6,5.6-4.6,11.6-4.7,17.1,0,2.6,2.2,4.7,5.1,7,7.7l7.1-2c3.2,1.1,5.7,3.8,8.2,7.6a30.8,30.8,0,0,0,12.3,10.3c4.3,1.9,7.7,4.9,11.9,6.8,9.2,3.9,16.8,9.6,21.3,18.8h9.5c1.5,2.4,3,5.4,5.2,7.9,4.2,4.8,9.4,8.3,15.2,11.4,8.1,4.3,16.2,8.2,25.1,10.5,1.2.3,2.1,1.7,3.5,3-.9,6.7-1.8,13.7-2.8,20.8,7.4,4.9,6.6,13,9,19.7s2.7,10.8,4,16.2c-11.7,10.3-29.3,12-39.5,25.6-1.4,8.1,1.6,15.3,5.3,22.6C1108.4,870.1,1111.6,875,1111.1,879.9Zm75.7,69c-1.5.2-2.6.5-2.8.3-7.3-11.2-17.9-19.2-27-28.6-4.1-4.3-9.6-6.8-16.1-7.6v-4.5l-6.4-6.4c-.5-9.6-6.3-17.9-7-27.7-.4-5.2-1.5-11.1-4.8-15.9-.9-1.2-1-3.1-1.6-5.1,9.4-5.8,20-4.5,28.8-9.1,4.5,7.8,10.3,15.5,13.8,24.1,4.7,11.7,14.8,21.2,14.7,34.9,5.5,7,2.1,17.2,8.4,23.9Zm183.3,18.6c0-3.7,1.4-8.6-.3-11.7s-1.2-7.2-1.4-10.3c-.3-5.8,1.8-11.7,3-17.6.2-.9.9-1.9.8-2.8-1.1-6.9,2.2-13.2,2.8-22,4.1,11.6,7,21.4,10.3,31s5.1,19.5,7.8,29.4Z" transform="translate(-0.8 -221.4)"/><path d="M1905.4,1051.8a51.1,51.1,0,0,1-7.1-5.1,35.2,35.2,0,0,1-8.6-2.3h-.5a40.3,40.3,0,0,1-16.7-3.6l-2,.7c-7.5,2.5-15.3,5-23,2-4.2-1.6-6.8-4.8-12-11a143.6,143.6,0,0,1-11.2-15.1,40.3,40.3,0,0,1-13.2,2.3,39.9,39.9,0,0,1-19-4.7c-11.6,2.3-12,3.8-18.6,3.5-16.6-.7-29.5-11-33-14-8.5-7.3-7.1-10.2-15-15s-17.9-6.4-23-7c-12.2-1.5-15.4,1.2-22-2s-9.8-9.4-12-13c-11-17.8-38.8-29.8-50-26-21.2,7.1-35.1,89,0,139l300-1a55.9,55.9,0,0,0,2.1-7.1A42.5,42.5,0,0,1,1905.4,1051.8Z" transform="translate(-0.8 -221.4)" style="stroke:#000;stroke-miterlimit:10"/><path d="M565.6,289.7V225.9c2,.5,3,2.5,4.8,3.3s6.5,1.2,9.7,1.9a23.7,23.7,0,0,1,9.6,4.9c7.9,6.2,16.3,10.6,26.6,10.4a25.8,25.8,0,0,1,6.2.3l1.8,9.3a20.3,20.3,0,0,0,1,6.4c-.2,3,1,5.8,1,8.7s1.1,5.5,1.6,8.2.5,4.8,1.7,7a23.3,23.3,0,0,0,1.8,7.8c0,2.4,1.2,4.5,1.5,6.9a41.3,41.3,0,0,1-8.6-.3,135,135,0,0,1-16.7-3.9c-6.9-2-13.9-3.7-20.9-5.2A78.7,78.7,0,0,0,565.6,289.7Zm54.6-36.3h0c-.3-.7.5-1,.7-1.8s-1.1-1.3-1.8-1.9a1.2,1.2,0,0,1-.7,1.3l.6,2.3Zm2.2,18.9c-.2-.4-.4-.4-.8-.2l.5.5c.9.6.2,1.8.8,2.5s1.5-1.2,1.9-2.2-1.2-.9-1.8-1.3Zm-37.5-26.1c.6.4,1.5-.2,1.9.9a3.9,3.9,0,0,0-1.2-4c.1.9-.9.5-1.2.9s1.2,1.3.5,2.2v.5C585.3,246.5,584.9,246.4,584.9,246.2Zm40.7,39.4.8.2-.6-.4.2-1.9-1.7-2c.1,1-.7,1-1,1.6s.7,1.5,1.1,2.2Zm-2.7,5.3h0c-.8-.8-.8-1.5-.1-2.2l-1.9-2.4c-.3.5,0,1.3-1.1,1.4,1,.8.6,1.8,1,2.8C621.8,289.3,622,291.7,622.9,290.9Zm-6.2-7.6h0c-.4-.8.3-1.5.4-2.4s-1-1-1.5-1.7-.2,1.7-1.5,1.1c1.1.7.9,1.8,1.1,2.8S616.4,282.5,616.7,283.3Zm-8.3,10h0c.5-.9-.3-2.1.7-3-1.2-.3-2.1-1.8-3.4-.3.9.8,1,1.8.4,3.4C607.3,292,607.9,292.3,608.4,293.3ZM588.8,260h0c.5-.8-.2-1.9.5-2.6l-1.7-1.9c-1.5.9-.3,2.4-1,4C588.1,258.2,588.5,259,588.8,260Zm1,10.7.3.2c0-.3-.1-.3-.3-.2s.7-1.2.9-2.2c-1.5.1-1.3-1.4-2.2-2.2.3,1.1-.4,1.6-1,2,.9.7.3,1.8.8,2.5S589.3,270.3,589.8,270.7Zm22.9,17.8h0a4.1,4.1,0,0,1,.9-2.8c-1.6.4-1.6-.8-2.2-1.4-.3.9-1,.6-1.7.8,1.1.8,1.2,2,1.6,3.1C611.9,287.7,612.3,288,612.7,288.5Zm-39.3-47.8h.1c-.1,1.1,1.3,2,.2,3.4,1.2-1,1.8-.2,2.7.6-.2-1.2-.1-2.1.9-2.7-1.4.1-1.7-.9-2.2-1.6Zm-2.2-4.2h-.1c.2-.9-.3-2,1.3-2.9a2.6,2.6,0,0,1-2.7-1.8c-.5,1.3-1.6-.1-2.2.7a3.3,3.3,0,0,1,1.4,3.2C570.3,234.7,570.6,235.9,571.2,236.5Zm11.2,47.2v-.2a.3.3,0,0,0,.1.2,7.2,7.2,0,0,1,1,3.6,5.4,5.4,0,0,0,3.1-2.6c-1-.5-2.1-.9-2.3-2.3C584.2,283.8,583.2,283.5,582.4,283.7Zm-10.8,2.6v.5l.4-.3-.2-.5c-.7-1.1.4-1.6,1.1-2.4-1.7.1-1.9-1.4-2.9-2.1l-.4,1.1c-.5.5-1.1-.8-1.6.3,1.5.6,1.4,2,1.3,3.5C570.2,286,571,285.6,571.6,286.3Zm7.8-5.1h-.1c.3-1.1-.8-2.5,1.3-3.6-1.7.3-2.2-.6-2.8-1.2l-2.3,1c2.2.7.8,2.1,1.1,3.2l1.2-.7Zm-3.6-13.5c.9-.7,1.6-.2,2.4.3-.4-1.2.6-1.8.8-2.8-1.5-.1-1.9-1.1-2.3-2.6.3,1.8-1.4.9-1.9,1.8A3.1,3.1,0,0,1,575.8,267.7Zm-6.3-8.6c.9-.3,1.5.5,2.8.8-1.1-1.3,0-2,.5-2.8l-1.6-.5c-.3-.7-.3-1.4-1.1-1.9,0,1.2-.7,1.5-1.7,1.3S569.7,257.7,569.5,259.1Zm3.5,14c-.9-1.2-.5-2.2.5-3.1l-1.7-.5c-.2-.6,0-1.5-1-1.8.3,1.8-1.3,1-2.3,1.4,1.2.9,2,1.8,1.8,3.2A3.8,3.8,0,0,1,573,273.1Zm-.3-27.1a3.9,3.9,0,0,1-2.7-3l-.7,1.7c-.4-.2-.8-.8-1.4,0,1.5.7,1.1,2.1,1.2,3.6.7-.8,1.3-.7,2.2-.2C571,247,571.6,246.5,572.7,246Zm18.9,37.5c-.6-1.2-.1-2,.4-3-1.4,0-1.8-.9-1.9-2.1a2.9,2.9,0,0,1-2.4,1.6c1.6.8,1.2,2.1,1.5,3.2C590,282.6,590.7,282.9,591.6,283.5Zm-6-11.3c-1.7.3-1.7-1.1-2.5-2.3,0,1.4-1.1,1.1-1.8,1.6,1.3.9,1.1,2.1,1.2,3.5,1.1-1.2,1.6.1,2.7.3C584.6,274.2,584.3,273.2,585.6,272.2Zm7.4,2.4c1.5.7,1,2.1,1.4,3.3.7-.9,1.2-.2,1.9,0s.2-1.7,1.1-2.5c-1.5-.1-2.1-1-2.6-2.6C594.7,274.3,594.1,274.6,593,274.6Zm-12.7-15.4a5,5,0,0,1,1.4,3.7c.8-1.4,1.3-.3,2.2-.3-.7-1,.3-1.7.6-2.7s-2-.1-2-1.6C582.1,259.9,581,258.6,580.3,259.2Zm-3.3-5.5c0,.2.8.4.9-.2s-1.5-1.5-2.3-2.5c.1,1.1-.7,1.4-1.4,1.7s.6,1.8,1,2.8c1.3-1.3,1.5.6,2.4.7S577.1,255.1,577,253.7Zm1.9-7.1c1.2,1.5,1.9,2.4.9,3.9,1-.4,1.8-1.3,2.4,0l.5-2.3a3.5,3.5,0,0,1-1.8-2.3C580.7,246.7,580.9,247.9,578.9,246.6Zm12.9,16.3c1.4.8,1.4,2,1.3,3.3l1.8-.6.7-1.9-.5-.2c-.6-.3-1.8,0-1.3-1.3h-.1C593.5,263.3,592.6,262.5,591.8,262.9Zm2.6,24.3c1.3,1,1,2.1,1.2,3.2,1-1.3,1.3.2,1.9.6s-.5-2.3,1.3-3c-1.7-.2-2.1-1.2-2.7-2.2C595.9,286.6,595.7,287.2,594.4,287.2Zm-1.7-42.4c.4-.7-.7-1.7.7-2.5-1.6.2-1.6-1.1-2.3-2.5.1,1.8-1,1.1-1.5,1.6s1,1.7,1.3,2.7S592.2,244.5,592.7,244.8Zm25.6,51.1c-.3-1,.3-1.7.5-2.6-1.4.4-1.2-1.1-2.1-1.7.4,1.3-.6.9-1.2,1.2a5.8,5.8,0,0,1,1.2,2.8A1.9,1.9,0,0,1,618.3,295.9Zm-12.7-19.6c-.1.9-1.1.8-1.6,1.5,1.1.5,1.2,1.5,1.1,2.7.8-.6,1.3,0,2,.5-.1-1.1-.5-2,.6-2.7C606.4,278,605.8,277.5,605.6,276.3Zm-5.9-7c-.2,1.4-.7,1.8-1.7,1.7,1.7.5,1,2,1.4,3s1.1-.2,1.7-.1.9-1.3.9-2.2S600.4,270.8,599.7,269.3Zm-20.9-33.4c1,1.2,1.2,3,3.2,3.3.4-.4-1.2-1.5.5-1.9a2.9,2.9,0,0,1-2-2.4C580.3,236.1,579.4,235.7,578.8,235.9Zm30,38.1c0,1.1,1.6,1.6.6,2.9.8,0,1.4-.3,2,.2a2.4,2.4,0,0,1,.3-2.2C610.7,274.4,610,273.3,608.8,274Zm-9.2,8.5c0,.8.7,1.1,1.2,2.2s-1,.7,0,1.4c.2-.9,1.2-.4,1.7-.9s.4-1.2.6-1.9S601.1,281.8,599.6,282.5Zm-5.3-27.6c-1-1,0-1.6.3-2.4-1.5.4-1.6-.8-2.2-1.7s-.5,1.3-1.1,1.4l.9,2.7C592.8,254.1,593.3,255.1,594.3,254.9Zm4.9-5c-1.7.2-1.5-1.2-1.8-2.3.2,1.3-.8,1.3-1.9,1.7,1.2.7,1.6,1.5,1.1,2.6h2.3C598,251,599.2,250.7,599.2,249.9Zm22,27.6c-.6-.4-1.3-.6-1.5-1.4l-1.8.8c1.6.6.9,1.9,1.2,2.9A3.3,3.3,0,0,0,621.2,277.5Zm-23.6-14.6c1.6-.3,2.6-.8,3-2.3-.9,0-1.5-.8-2.1-1.2l-1.5.8C598.2,260.7,598.1,261.7,597.6,262.9Zm18.2,7c-1.3.8-1.5-2.4-3.1-.2,1.7.2.6,1.7,1.1,2.5s1-.5,1.4-.1ZM626,293.5c-.1.6-1,.5-1.3,1.1s.9,1.6.6,3.2c.8-1.4,1.5-.3,2.1-.6S627.2,294.4,626,293.5Zm-25.6-46.9a2.5,2.5,0,0,1,1.2,2.6c.5.2,1.2-.4,1.5.4l.9-1.9c-1.3.1-1.4-1.1-2.2-1.7S601.1,246.5,600.4,246.6Zm5.9,20.7c-1.3-.2-1.7-1-1.9-2.2-.2,1.1-1.1.9-1.6,1.2,1.5,2.6,1.5,2.6,2.9,2.9C605.5,268.6,605.1,267.9,606.3,267.3Zm4.5-15.2c1.1-.2,1.3-1,2.2-1.8-1.6.2-1.4-1.2-2.2-1.7s-.6.6-1.5.9C610.9,249.9,610.5,251.1,610.8,252.1Zm-.8,14.2a1.9,1.9,0,0,1,.1-2l-1.4-1.7c-.3.6-.9.5-1.4.7A5.9,5.9,0,0,0,610,266.3Zm3.9-6.1-1.4-1.8-1.4.8c1,.5,1.5,1.2,1,2.1C613.7,262.1,613.6,260.6,613.9,260.2Zm-10.7-5.4-1.3.9.7,2.5a2.7,2.7,0,0,0,2.1-1.7C603.8,256.2,603.2,255.7,603.2,254.8Zm15.8,14,.6-1.6c-1-.2-1.4-2.1-2.9-.6.4.7,1.3,1.2.7,2.2Zm-2.6-10.6h.9l.7.2c-.1-2.8-.4-3.2-2.6-2.6C615.9,256.6,616.8,257.2,616.4,258.2Zm5.8,5.8c.6-1.4-.5-2.1-1-3.1l-1.3,1.1c.6.6,1.5,1.1.7,2.2Zm-15.8-10.8.6,1.9h1.4c-.4-.7.5-1,.5-1.7s-1.6-.3-1.4-1.5Z" transform="translate(-0.8 -221.4)" style="fill:#153b57"/><path d="M566,335.7a16.1,16.1,0,0,1,.1-8.7c4.4.1,8.9.6,13.3.3a99.1,99.1,0,0,1,14.4-.6c6,.4,12,1.3,18,1.3a31.7,31.7,0,0,1,18.9,6.2c3.3,2.5,6.9,4.6,11.5,4.5a45.6,45.6,0,0,0,13.3-2.7c2.7-.9,5.3-1,7.5.3s.4,3.7,2.5,4.5a44.1,44.1,0,0,0,21.9,2.1,25.6,25.6,0,0,1,11,.8c5.5,1.6,10.5,4.3,15.9,6.7a21.9,21.9,0,0,0-1.3-4.1c-.9-1.8-1.6-3.9-3.8-4.7s-5.6-2.5-8.4-3.5-7.9-2.7-12.2-2.2a53.1,53.1,0,0,1-20.2-1.6c-3.8-1-7.9-1.4-7.5-6.7-3.9-1.7-4.1-1.8-7.8-.3s-9.1,2.9-13.5.5a58.4,58.4,0,0,0-16.4-5.8c-13.2-2.9-26.6-4-40.1-4.4-5.8-.2-11.7-.7-17.5-1v-8.8a78.6,78.6,0,0,0,8.4.3c10.6-.7,20.8,1.7,31.1,3.5,8.5,1.5,16.5,5.2,25.1,6.4,6.5.9,13,1.9,19.5-.4,4.2-1.6,8.4.7,9.9,5.1a25.1,25.1,0,0,0,7.2,2.8c7.4,1.8,14.7,3.6,22.3,4.1s12.5.3,18.2,3.8a20.6,20.6,0,0,0-3.1-6.3l.3-.3c2.3,2.1,4.7,3.6,8,3.2.9,2.5,2,5,2.2,7.7a26.1,26.1,0,0,1-6.5-3.2c1.2,2.6,2.1,4.7,3.2,6.8s2.2,4.2,5,4.3c.6,2.4,1.1,4.7,1.7,7l-3-.9c1.3,3.6,3.2,6.5,4.8,9.6l-4.9-3.2c-4.5-2.9-9.1-6.3-15-6l-21.2,1c-4.4.2-8.7.2-11-4.4a26.9,26.9,0,0,1-1.7-5.5l-1.6-.2a65.3,65.3,0,0,0-17.6,4c-6.6,2.6-12.3,1.2-17.1-4a15.9,15.9,0,0,0-10.5-5.6c-3.4-.4-6.9-.4-10.3-1.3-6.1-1.4-12.2-2.7-18.6-1.8s-10.4,2-15.7,2.1C571.7,336.4,568.9,335.4,566,335.7Z" transform="translate(-0.8 -221.4)" style="fill:#eeebea"/><path d="M632.9,301c-.3-2.4-1.5-4.5-1.5-6.9l18,.4c1.9,0,3.1.5,3.9,2.3a6.1,6.1,0,0,0,3,2.9c3.5,1.5,6.9,3.1,10.8,3.4l13.1,1.2c6.4.5,12.2,2.1,16.3,7.7-1.4-3.8-1.5-8.3-5.5-10.7s-10.7-4.3-16.3-5c-7.9-1-15.6-2.2-22.9-5.5-1.1-.5-2.8-.3-3.4-1.7s-3.3-2.9-5.9-2.7c-4.3.4-8.6.8-12.9-.1-1.2-2.2-1-4.7-1.7-7l16.3.9c.9,2.1,2.3,3.9,5.1,4.1a6.2,6.2,0,0,1,2.3.4c5.6,2.8,11.7,3.3,17.7,4.2,3.6.5,7.3,0,10.8,1.1a35.9,35.9,0,0,1,13.7,7.7c0-2.5-.4-4.7-1.9-6.5-5.8-7.6-13.7-11-23.1-9.9-7.7.9-14.5-1.3-21-5s-13.8-5.8-21.5-5.2c0-2.9-1.2-5.7-1-8.7.4,0,.8-.2,1.2-.1,6.4.9,12.8,1.1,18.4,5.1,2.4,1.7,5.6,2.1,8.3,3.5,5.1,2.7,10.3,4.2,16.1,3.2,9.7-1.8,17.3,1.7,23.5,9l.2-.3c1.5-9-5.8-16.5-15.3-16.8-4.1-.1-8.1.1-12.2.3s-9-2.4-13.6-3.3a19.3,19.3,0,0,1-9.3-4.2c-3-2.6-6.4-3.3-10.1-3.3s-5.5.3-8.2.5l-1.8-9.3c5.5-.4,11-1.4,16.5-.7a1.6,1.6,0,0,1,1.1.5c3.3,3.8,7.9,5.2,12.5,6.7,1.5.4,2.5,1.6,3.8,2.3,3.9,2.3,8.1,1.6,12.1,1,6.3-1,11.9.4,17.6,3.1s7.4,5.6,7.2,10.8a12.6,12.6,0,0,0,1.9,6.9c2.9,4.7,6.6,7.9,12.6,8.1-.3,2.6-1.5,4.9-2.2,7.3-5.1-.1-8.3-3.6-12-6.8-.1,1.3-.4,2.2-.4,3.1.3,2.8.6,5.8,3.3,7.4a21.6,21.6,0,0,0,6.4,3.3,23.7,23.7,0,0,1-2.1,5.8,30.8,30.8,0,0,1-6.4-3.8c.4,4.9,2.1,7.2,5.5,8,.3,2.2.4,4.5,1.7,6.4H699c.5,1.1,1.1,2.3,1.6,3.5a2.1,2.1,0,0,1-1.9-.8c-5.1-4.5-11.4-6.3-17.8-7.8-8.2-2-17.1-.5-25.1-4.9-.7-1.4,0-3.8-2.1-5.1s-2-.1-3,0C644.7,301.2,638.8,302.1,632.9,301Z" transform="translate(-0.8 -221.4)" style="fill:#c60c21"/><path d="M566,335.7c2.9-.3,5.7.7,8.7.7,5.3-.1,10.5-1.3,15.7-2.1s12.5.4,18.6,1.8c3.4.9,6.9.9,10.3,1.3a15.9,15.9,0,0,1,10.5,5.6c4.8,5.2,10.5,6.6,17.1,4a65.3,65.3,0,0,1,17.6-4l1.6.2a26.9,26.9,0,0,0,1.7,5.5c2.3,4.6,6.6,4.6,11,4.4l21.2-1c5.9-.3,10.5,3.1,15,6l4.9,3.2h-.1c1,1.5,2,3,3.1,4.4s1.3,1.7,2.6,1.3c2.6,3,5,6.2,9.1,8.7a11,11,0,0,1-8.8-2.6c-2.6-2.1-5.1-4.4-7.6-6.6-5.1-4.2-11-4.8-17.2-4.2-10.1,1-20.3,1.5-30.4,1.6-1.8,0-3.9-.2-5-2.3,1.1-1.5,2.8-2,4.4-2.9s2.5-3.4,1-4.6-6.4-2.3-8.9-1.1-5,.9-7.4,1.8c-5.2,1.7-10.1,4.4-15.8,4.7a10.6,10.6,0,0,1-9.9-4.9c-2.4-3.5-5.3-6.6-9.8-7.3-2.2-.3-4.6-.2-6.9-.4-3.9-.5-7.7-1.9-11.5-2.9a24.4,24.4,0,0,0-14.4.5c-6.6,1.9-13.3,3.2-20.4.8A50.2,50.2,0,0,1,566,335.7Z" transform="translate(-0.8 -221.4)" style="fill:#c60c21"/><path d="M565.6,316.6c5.8.3,11.7.8,17.5,1,13.5.4,26.9,1.5,40.1,4.4a58.4,58.4,0,0,1,16.4,5.8c4.4,2.4,9,1.4,13.5-.5s3.9-1.4,7.8.3c-.4,5.3,3.7,5.7,7.5,6.7a53.1,53.1,0,0,0,20.2,1.6c4.3-.5,8.2.8,12.2,2.2s5.6,2.3,8.4,3.5,2.9,2.9,3.8,4.7a21.9,21.9,0,0,1,1.3,4.1c-5.4-2.4-10.4-5.1-15.9-6.7a25.6,25.6,0,0,0-11-.8,44.1,44.1,0,0,1-21.9-2.1c-2.1-.8-1.6-2.8-2.5-4.5s-4.8-1.2-7.5-.3a45.6,45.6,0,0,1-13.3,2.7c-4.6.1-8.2-2-11.5-4.5a31.7,31.7,0,0,0-18.9-6.2c-6,0-12-.9-18-1.3a99.1,99.1,0,0,0-14.4.6c-4.4.3-8.9-.2-13.3-.3l-.2-.9-.3-.5C566.2,322.6,565.2,319.6,565.6,316.6Z" transform="translate(-0.8 -221.4)" style="fill:#c60c21"/><path d="M712.5,330c-3.3.4-5.7-1.1-8-3.2-.2-.2-.4-.4-.7-.1l.4.4a20.6,20.6,0,0,1,3.1,6.3c-5.7-3.5-12-3.5-18.2-3.8s-14.9-2.3-22.3-4.1a25.1,25.1,0,0,1-7.2-2.8c-1.5-4.4-5.7-6.7-9.9-5.1-6.5,2.3-13,1.3-19.5.4-8.6-1.2-16.6-4.9-25.1-6.4-10.3-1.8-20.5-4.2-31.1-3.5a78.6,78.6,0,0,1-8.4-.3v-9.4c6.1-.8,12.1-.1,18.2.6s10.7,2.5,16.1,4a205,205,0,0,0,20.3,4.6c9.8,1.7,19.5,3.3,29.5,1.3,3.8-.8,5.4.3,6.4,4.2a3.6,3.6,0,0,0,2.5,2.6,62.1,62.1,0,0,0,10.4,2.2c11.9,1.6,23.7,3.6,34.9,8.2l-2.5-5.4a9.4,9.4,0,0,0,6.8,2.4A23.5,23.5,0,0,1,712.5,330Z" transform="translate(-0.8 -221.4)" style="fill:#c60c21"/><path d="M708.2,323.1a9.4,9.4,0,0,1-6.8-2.4l2.5,5.4c-11.2-4.6-23-6.6-34.9-8.2a62.1,62.1,0,0,1-10.4-2.2,3.6,3.6,0,0,1-2.5-2.6c-1-3.9-2.6-5-6.4-4.2-10,2-19.7.4-29.5-1.3a205,205,0,0,1-20.3-4.6c-5.4-1.5-10.6-3.3-16.1-4s-12.1-1.4-18.2-.6v-8.7a78.7,78.7,0,0,1,21.1,1.9c7,1.5,14,3.2,20.9,5.2a135,135,0,0,0,16.7,3.9,41.3,41.3,0,0,0,8.6.3c5.9,1.1,11.8.2,17.8,0,1-.1,2.1,0,3,0s1.4,3.7,2.1,5.1c8,4.4,16.9,2.9,25.1,4.9,6.4,1.5,12.7,3.3,17.8,7.8a2.1,2.1,0,0,0,1.9.8c-.5-1.2-1.1-2.4-1.6-3.5h2.6C703.5,318.7,706.8,320,708.2,323.1Z" transform="translate(-0.8 -221.4)" style="fill:#eeebea"/><path d="M702.9,299.7a21.6,21.6,0,0,1-6.4-3.3c-2.7-1.6-3-4.6-3.3-7.4,0-.9.3-1.8.4-3.1,3.7,3.2,6.9,6.7,12,6.8Z" transform="translate(-0.8 -221.4)" style="fill:#eeebea"/><path d="M662.1,352.9c2.5-1.2,7.3-.1,8.9,1.1s1,3.4-1,4.6-3.3,1.4-4.4,2.9C664,358.9,663.4,355.7,662.1,352.9Z" transform="translate(-0.8 -221.4)" style="fill:#153b57"/><path d="M716.4,345.6c-2.8-.1-4-2.2-5-4.3s-2-4.2-3.2-6.8a26.1,26.1,0,0,0,6.5,3.2C715.8,340.2,716,342.9,716.4,345.6Z" transform="translate(-0.8 -221.4)" style="fill:#c60c21"/><path d="M719.9,361.3c-1.6-3.1-3.5-6-4.8-9.6l3,.9,4.5,9.1c-1.1,1.2-1.7-1.2-2.8-.5Z" transform="translate(-0.8 -221.4)" style="fill:#c60c21"/><path d="M699.9,309.7c-3.4-.8-5.1-3.1-5.5-8a30.8,30.8,0,0,0,6.4,3.8Z" transform="translate(-0.8 -221.4)" style="fill:#eeebea"/><path d="M719.8,361.2c1.1-.7,1.7,1.7,2.8.5l2.9,5.2c-1.3.4-2-.6-2.6-1.3S720.8,362.7,719.8,361.2Z" transform="translate(-0.8 -221.4)" style="fill:#eeebea"/><path d="M565.6,325.6l.3.5Z" transform="translate(-0.8 -221.4)" style="fill:#eeebea"/><path d="M624.3,256c2.7-.2,5.5-.5,8.2-.5s7.1.7,10.1,3.3a19.3,19.3,0,0,0,9.3,4.2c4.6.9,8.7,3.4,13.6,3.3s8.1-.4,12.2-.3c9.5.3,16.8,7.8,15.3,16.8l-.2.3c-6.2-7.3-13.8-10.8-23.5-9-5.8,1-11-.5-16.1-3.2-2.7-1.4-5.9-1.8-8.3-3.5-5.6-4-12-4.2-18.4-5.1-.4-.1-.8.1-1.2.1A20.3,20.3,0,0,1,624.3,256Z" transform="translate(-0.8 -221.4)" style="fill:#eeebea"/><path d="M626.3,271.1c7.7-.6,14.8,1.4,21.5,5.2s13.3,5.9,21,5c9.4-1.1,17.3,2.3,23.1,9.9,1.5,1.8,1.9,4,1.9,6.5a35.9,35.9,0,0,0-13.7-7.7c-3.5-1.1-7.2-.6-10.8-1.1-6-.9-12.1-1.4-17.7-4.2a6.2,6.2,0,0,0-2.3-.4c-2.8-.2-4.2-2-5.1-4.1l-16.3-.9C627.4,276.6,626.8,273.8,626.3,271.1Z" transform="translate(-0.8 -221.4)" style="fill:#eeebea"/><path d="M629.6,286.3c4.3.9,8.6.5,12.9.1,2.6-.2,4.7-.1,5.9,2.7s2.3,1.2,3.4,1.7c7.3,3.3,15,4.5,22.9,5.5,5.6.7,11.4,1.9,16.3,5s4.1,6.9,5.5,10.7c-4.1-5.6-9.9-7.2-16.3-7.7l-13.1-1.2c-3.9-.3-7.3-1.9-10.8-3.4a6.1,6.1,0,0,1-3-2.9c-.8-1.8-2-2.3-3.9-2.3l-18-.4A23.3,23.3,0,0,1,629.6,286.3Z" transform="translate(-0.8 -221.4)" style="fill:#eeebea"/><path d="M575.8,267.7a3.1,3.1,0,0,0-1-3.3c.5-.9,2.2,0,1.9-1.8.4,1.5.8,2.5,2.3,2.6-.2,1-1.2,1.6-.8,2.8C577.4,267.5,576.7,267,575.8,267.7Z" transform="translate(-0.8 -221.4)" style="fill:#eeebea"/><path d="M569.5,259.1c.2-1.4-.8-2-1.1-3.1s1.7-.1,1.7-1.3c.8.5.8,1.2,1.1,1.9l1.6.5c-.5.8-1.6,1.5-.5,2.8C571,259.6,570.4,258.8,569.5,259.1Z" transform="translate(-0.8 -221.4)" style="fill:#eeebea"/><path d="M573,273.1a3.8,3.8,0,0,0-2.7-.8c.2-1.4-.6-2.3-1.8-3.2,1-.4,2.6.4,2.3-1.4,1,.3.8,1.2,1,1.8l1.7.5C572.5,270.9,572.1,271.9,573,273.1Z" transform="translate(-0.8 -221.4)" style="fill:#eeebea"/><path d="M572.7,246c-1.1.5-1.7,1-1.4,2.1-.9-.5-1.5-.6-2.2.2-.1-1.5.3-2.9-1.2-3.6.6-.8,1-.2,1.4,0l.7-1.7A3.9,3.9,0,0,0,572.7,246Z" transform="translate(-0.8 -221.4)" style="fill:#eeebea"/><path d="M591.6,283.5c-.9-.6-1.6-.9-2.4-.3-.3-1.1.1-2.4-1.5-3.2a2.9,2.9,0,0,0,2.4-1.6c.1,1.2.5,2.1,1.9,2.1C591.5,281.5,591,282.3,591.6,283.5Z" transform="translate(-0.8 -221.4)" style="fill:#eeebea"/><path d="M579.4,281.2l-1.6-1.4-1.2.7c-.3-1.1,1.1-2.5-1.1-3.2l2.3-1c.6.6,1.1,1.5,2.8,1.2-2.1,1.1-1,2.5-1.3,3.6Z" transform="translate(-0.8 -221.4)" style="fill:#eeebea"/><path d="M571.6,286.3c-.6-.7-1.4-.3-2.2.1.1-1.5.2-2.9-1.3-3.5.5-1.1,1.1.2,1.6-.3l.4-1.1c1,.7,1.2,2.2,2.9,2.1-.7.8-1.8,1.3-1.1,2.4Z" transform="translate(-0.8 -221.4)" style="fill:#eeebea"/><path d="M582.4,283.7c.8-.2,1.8.1,1.9-1.3.2,1.4,1.3,1.8,2.3,2.3a5.4,5.4,0,0,1-3.1,2.6,7.2,7.2,0,0,0-1-3.6Z" transform="translate(-0.8 -221.4)" style="fill:#eeebea"/><path d="M585.6,272.2c-1.3,1-1,2-.4,3.1-1.1-.2-1.6-1.5-2.7-.3-.1-1.4.1-2.6-1.2-3.5.7-.5,1.8-.2,1.8-1.6C583.9,271.1,583.9,272.5,585.6,272.2Z" transform="translate(-0.8 -221.4)" style="fill:#eeebea"/><path d="M571.2,236.5c-.6-.6-.9-1.8-2.3-.9a3.3,3.3,0,0,0-1.4-3.2c.6-.8,1.7.6,2.2-.7a2.6,2.6,0,0,0,2.7,1.8c-1.6.9-1.1,2-1.3,2.9Z" transform="translate(-0.8 -221.4)" style="fill:#eeebea"/><path d="M593,274.6c1.1,0,1.7-.3,1.8-1.8.5,1.6,1.1,2.5,2.6,2.6-.9.8-1.5,1.5-1.1,2.5s-1.2-.9-1.9,0C594,276.7,594.5,275.3,593,274.6Z" transform="translate(-0.8 -221.4)" style="fill:#eeebea"/><path d="M580.3,259.2c.7-.6,1.8.7,2.2-.9,0,1.5.9,1.7,2,1.6s-1.3,1.7-.6,2.7c-.9,0-1.4-1.1-2.2.3A5,5,0,0,0,580.3,259.2Z" transform="translate(-0.8 -221.4)" style="fill:#eeebea"/><path d="M577,253.7c.1,1.4.8,1.8.6,2.5s-1.1-2-2.4-.7c-.4-1-.2-2-1-2.8s1.5-.6,1.4-1.7c.8,1,1.1,2.2,2.3,2.5S577,253.9,577,253.7Z" transform="translate(-0.8 -221.4)" style="fill:#eeebea"/><path d="M578.9,246.6c2,1.3,1.8.1,2-.7a3.5,3.5,0,0,0,1.8,2.3l-.5,2.3c-.6-1.3-1.4-.4-2.4,0C580.8,249,580.1,248.1,578.9,246.6Z" transform="translate(-0.8 -221.4)" style="fill:#eeebea"/><path d="M591.8,262.9c.8-.4,1.7.4,1.9-.6h.1c-.5,1.3.7,1,1.3,1.3l.5.2-.7,1.9-1.8.6C593.2,264.9,593.2,263.7,591.8,262.9Z" transform="translate(-0.8 -221.4)" style="fill:#eeebea"/><path d="M573.4,240.7l1.7-.3c.5.7.8,1.7,2.2,1.6-1,.6-1.1,1.5-.9,2.7-.9-.8-1.5-1.6-2.7-.6,1.1-1.4-.3-2.3-.2-3.4Z" transform="translate(-0.8 -221.4)" style="fill:#eeebea"/><path d="M594.4,287.2c1.3,0,1.5-.6,1.7-1.4.6,1,1,2,2.7,2.2-1.8.7-1,1.9-1.3,3s-.9-1.9-1.9-.6C595.4,289.3,595.7,288.2,594.4,287.2Z" transform="translate(-0.8 -221.4)" style="fill:#eeebea"/><path d="M592.7,244.8c-.5-.3-1-.9-1.8-.7s-.4-2-1.3-2.7,1.6.2,1.5-1.6c.7,1.4.7,2.7,2.3,2.5C592,243.1,593.1,244.1,592.7,244.8Z" transform="translate(-0.8 -221.4)" style="fill:#eeebea"/><path d="M618.3,295.9a1.9,1.9,0,0,0-1.6-.3,5.8,5.8,0,0,0-1.2-2.8c.6-.3,1.6.1,1.2-1.2.9.6.7,2.1,2.1,1.7C618.6,294.2,618,294.9,618.3,295.9Z" transform="translate(-0.8 -221.4)" style="fill:#eeebea"/><path d="M605.6,276.3c.2,1.2.8,1.7,2.1,2-1.1.7-.7,1.6-.6,2.7-.7-.5-1.2-1.1-2-.5.1-1.2,0-2.2-1.1-2.7C604.5,277.1,605.5,277.2,605.6,276.3Z" transform="translate(-0.8 -221.4)" style="fill:#eeebea"/><path d="M599.7,269.3c.7,1.5.9,2.6,2.3,2.4s-1.2,1.2-.9,2.2-1.1-.4-1.7.1.3-2.5-1.4-3C599,271.1,599.5,270.7,599.7,269.3Z" transform="translate(-0.8 -221.4)" style="fill:#eeebea"/><path d="M578.8,235.9c.6-.2,1.5.2,1.7-1a2.9,2.9,0,0,0,2,2.4c-1.7.4-.1,1.5-.5,1.9C580,238.9,579.8,237.1,578.8,235.9Z" transform="translate(-0.8 -221.4)" style="fill:#eeebea"/><path d="M612.7,288.5c-.4-.5-.8-.8-1.4-.2-.4-1.1-.5-2.3-1.6-3.1.7-.2,1.4.1,1.7-.8.6.6.6,1.8,2.2,1.4a4.1,4.1,0,0,0-.9,2.8Z" transform="translate(-0.8 -221.4)" style="fill:#eeebea"/><path d="M589.8,270.7c-.5-.4-1-.2-1.5.1s.1-1.8-.8-2.5c.6-.4,1.3-.9,1-2,.9.8.7,2.3,2.2,2.2-.2,1-1,1.4-.9,2.2Z" transform="translate(-0.8 -221.4)" style="fill:#eeebea"/><path d="M588.8,260c-.3-1-.7-1.8-2.2-.5.7-1.6-.5-3.1,1-4l1.7,1.9c-.7.7,0,1.8-.5,2.6Z" transform="translate(-0.8 -221.4)" style="fill:#eeebea"/><path d="M608.8,274c1.2-.7,1.9.4,2.9.9a2.4,2.4,0,0,0-.3,2.2c-.6-.5-1.2-.2-2-.2C610.4,275.6,608.8,275.1,608.8,274Z" transform="translate(-0.8 -221.4)" style="fill:#eeebea"/><path d="M599.6,282.5c1.5-.7,2.3.6,3.5.8s-.8,1.2-.6,1.9-1.5,0-1.7.9c-1-.7.1-1.3,0-1.4S599.6,283.3,599.6,282.5Z" transform="translate(-0.8 -221.4)" style="fill:#eeebea"/><path d="M608.4,293.3c-.5-1-1.1-1.3-2.3.1.6-1.6.5-2.6-.4-3.4,1.3-1.5,2.2,0,3.4.3-1,.9-.2,2.1-.7,3Z" transform="translate(-0.8 -221.4)" style="fill:#eeebea"/><path d="M594.3,254.9c-1,.2-1.5-.8-2.1,0l-.9-2.7c.6-.1.7-.8,1.1-1.4s.7,2.1,2.2,1.7C594.3,253.3,593.3,253.9,594.3,254.9Z" transform="translate(-0.8 -221.4)" style="fill:#eeebea"/><path d="M616.7,283.3c-.3-.8-.9-.4-1.5-.3s0-2.1-1.1-2.8c1.3.6,1-.7,1.5-1.1s.6,1.6,1.5,1.7-.8,1.6-.4,2.4Z" transform="translate(-0.8 -221.4)" style="fill:#eeebea"/><path d="M622.9,290.9c-.9.8-1.1-1.6-2.1-.4-.4-1,0-2-1-2.8,1.1-.1.8-.9,1.1-1.4l1.9,2.4c-.7.7-.7,1.4.1,2.2Z" transform="translate(-0.8 -221.4)" style="fill:#eeebea"/><path d="M599.2,249.9c0,.8-1.2,1.1-.3,2h-2.3c.5-1.1.1-1.9-1.1-2.6,1.1-.4,2.1-.4,1.9-1.7C597.7,248.7,597.5,250.1,599.2,249.9Z" transform="translate(-0.8 -221.4)" style="fill:#eeebea"/><path d="M621.2,277.5a3.3,3.3,0,0,1-2.1,2.3c-.3-1,.4-2.3-1.2-2.9l1.8-.8C619.9,276.9,620.6,277.1,621.2,277.5Z" transform="translate(-0.8 -221.4)" style="fill:#eeebea"/><path d="M597.6,262.9c.5-1.2.6-2.2-.6-2.7l1.5-.8c.6.4,1.2,1.2,2.1,1.2C600.2,262.1,599.2,262.6,597.6,262.9Z" transform="translate(-0.8 -221.4)" style="fill:#eeebea"/><path d="M615.8,269.9l-.6,2.2c-.4-.4-.9-.1-1.4.1s.6-2.3-1.1-2.5C614.3,267.5,614.5,270.7,615.8,269.9Z" transform="translate(-0.8 -221.4)" style="fill:#eeebea"/><path d="M626,293.5c1.2.9,1.1,2.3,1.4,3.7s-1.3-.8-2.1.6c.3-1.6.3-2.5-.6-3.2S625.9,294.1,626,293.5Z" transform="translate(-0.8 -221.4)" style="fill:#eeebea"/><path d="M600.4,246.6c.7-.1,1.2-.1,1.4-.6s.9,1.8,2.2,1.7l-.9,1.9c-.3-.8-1-.2-1.5-.4A2.5,2.5,0,0,0,600.4,246.6Z" transform="translate(-0.8 -221.4)" style="fill:#eeebea"/><path d="M606.3,267.3c-1.2.6-.8,1.3-.6,1.9-1.4-.3-1.4-.3-2.9-2.9.5-.3,1.4-.1,1.6-1.2C604.6,266.3,605,267.1,606.3,267.3Z" transform="translate(-0.8 -221.4)" style="fill:#eeebea"/><path d="M625.6,285.6l-1.2-.3c-.4-.7-.1-1.7-1.1-2.2s1.1-.6,1-1.6l1.7,2-.2,1.9Z" transform="translate(-0.8 -221.4)" style="fill:#eeebea"/><path d="M610.8,252.1c-.3-1,.1-2.2-1.5-2.6.9-.3,1.4-.2,1.5-.9s.6,1.9,2.2,1.7C612.1,251.1,611.9,251.9,610.8,252.1Z" transform="translate(-0.8 -221.4)" style="fill:#eeebea"/><path d="M584.9,246.2c.7-.9-.2-1.5-.5-2.2s1.3,0,1.2-.9a3.9,3.9,0,0,1,1.2,4c-.4-1.1-1.3-.5-1.9-.9Z" transform="translate(-0.8 -221.4)" style="fill:#eeebea"/><path d="M610,266.3a5.9,5.9,0,0,1-2.7-3c.5-.2,1.1-.1,1.4-.7l1.4,1.7A1.9,1.9,0,0,0,610,266.3Z" transform="translate(-0.8 -221.4)" style="fill:#eeebea"/><path d="M613.9,260.2c-.3.4-.2,1.9-1.8,1.1.5-.9,0-1.6-1-2.1l1.4-.8Z" transform="translate(-0.8 -221.4)" style="fill:#eeebea"/><path d="M622.4,272.3l.6-.7c.6.4,1,1.2,1.8,1.3s-.7,1.9-1.9,2.2.1-1.9-.8-2.5Z" transform="translate(-0.8 -221.4)" style="fill:#eeebea"/><path d="M603.2,254.8c0,.9.6,1.4,1.5,1.7a2.7,2.7,0,0,1-2.1,1.7l-.7-2.5Z" transform="translate(-0.8 -221.4)" style="fill:#eeebea"/><path d="M620.2,253.4l-1.2-.2-.6-2.3a1.2,1.2,0,0,0,.7-1.3c.7.6.6,1.9,1.8,1.9s-1,1.1-.7,1.8Z" transform="translate(-0.8 -221.4)" style="fill:#eeebea"/><path d="M619,268.8h-1.6c.6-1-.3-1.5-.7-2.2,1.5-1.5,1.9.4,2.9.6Z" transform="translate(-0.8 -221.4)" style="fill:#eeebea"/><path d="M616.4,258.2c.4-1-.5-1.6-1-2.3,2.2-.6,2.5-.2,2.6,2.6l-.7-.2Z" transform="translate(-0.8 -221.4)" style="fill:#eeebea"/><path d="M622.2,264l-1.6.2c.8-1.1-.1-1.6-.7-2.2l1.3-1.1C621.7,261.9,622.8,262.6,622.2,264Z" transform="translate(-0.8 -221.4)" style="fill:#eeebea"/><path d="M606.4,253.2l1.1-1.2c-.2,1.2.7,1.4,1.4,1.5s-.9,1-.5,1.7H607Z" transform="translate(-0.8 -221.4)" style="fill:#eeebea"/><path d="M622.1,272.6l-.5-.5c.4-.2.6-.2.8.2Z" transform="translate(-0.8 -221.4)" style="fill:#eeebea"/><path d="M608.4,293.3h0Z" transform="translate(-0.8 -221.4)" style="fill:#eeebea"/><path d="M582.5,283.7a.3.3,0,0,1-.1-.2v.2Z" transform="translate(-0.8 -221.4)" style="fill:#eeebea"/><polygon points="615.9 61.8 616 61.8 615.9 61.8 615.9 61.8" style="fill:#eeebea"/><polygon points="619.4 31.9 619.4 31.9 619.4 32 619.4 31.9" style="fill:#eeebea"/><path d="M588.8,260h0Z" transform="translate(-0.8 -221.4)" style="fill:#eeebea"/><path d="M625.8,285.4l.6.4-.8-.2Z" transform="translate(-0.8 -221.4)" style="fill:#eeebea"/><path d="M571.9,286l.2.5-.4.3v-.5Z" transform="translate(-0.8 -221.4)" style="fill:#eeebea"/><path d="M612.7,288.6h0Z" transform="translate(-0.8 -221.4)" style="fill:#eeebea"/><path d="M589.8,270.7c.2-.1.3-.1.3.2l-.3-.2Z" transform="translate(-0.8 -221.4)" style="fill:#eeebea"/><path d="M622.9,290.9h0Z" transform="translate(-0.8 -221.4)" style="fill:#eeebea"/><path d="M584.9,246.2c0,.2.4.3,0,.5v-.5Z" transform="translate(-0.8 -221.4)" style="fill:#eeebea"/><polygon points="578.5 59.7 578.6 59.7 578.6 59.7 578.5 59.7" style="fill:#eeebea"/><polygon points="572.6 19.2 572.5 19.3 572.6 19.3 572.6 19.2" style="fill:#eeebea"/><polygon points="570.3 15 570.4 15 570.4 15.1 570.3 15" style="fill:#eeebea"/><path d="M704.2,327.1l-.4-.4c.3-.3.5-.1.7.1Z" transform="translate(-0.8 -221.4)" style="fill:#eeebea"/><polygon points="565.2 203.6 565.2 348.8 558.2 348.6 558.2 198.6 565.2 196.6 565.2 203.6"/></svg>